HIERARCHY
ROOT Hips
{
	OFFSET 0.00 0.00 0.00
	CHANNELS 6 Xposition Yposition Zposition Xrotation Yrotation Zrotation
	JOINT Spine
	{
		OFFSET 0.00000 0.84964 1.27446
		CHANNELS 3 Xrotation Yrotation Zrotation
		JOINT Spine1
		{
			OFFSET 0.00000 0.29508 1.67346
			CHANNELS 3 Xrotation Yrotation Zrotation
			JOINT Spine2
			{
				OFFSET 0.00000 0.14810 1.69281
				CHANNELS 3 Xrotation Yrotation Zrotation
				JOINT Spine3
				{
					OFFSET 0.00000 0.00000 1.69928
					CHANNELS 3 Xrotation Yrotation Zrotation
					JOINT Neck
					{
						OFFSET 0.00000 -0.63723 4.46061
						CHANNELS 3 Xrotation Yrotation Zrotation
						JOINT Head
						{
							OFFSET 0.00000 -0.40573 2.30101
							CHANNELS 3 Xrotation Yrotation Zrotation
							End Site
							{
								OFFSET 0.00000 0.00000 2.75071
							}
						}
					}
					JOINT RightShoulder
					{
						OFFSET -0.72014 -1.20022 3.88874
						CHANNELS 3 Xrotation Yrotation Zrotation
						JOINT RightArm
						{
							OFFSET -3.57668 0.00000 0.00000
							CHANNELS 3 Xrotation Yrotation Zrotation
							JOINT RightForeArm
							{
								OFFSET -5.92485 0.00000 0.00000
								CHANNELS 3 Xrotation Yrotation Zrotation
								JOINT RightHand
								{
									OFFSET -6.63013 0.00000 0.00000
									CHANNELS 3 Xrotation Yrotation Zrotation
									JOINT RightHandEnd
									{
										OFFSET -1.65321 0.00000 0.00000
										CHANNELS 3 Xrotation Yrotation Zrotation
										End Site
										{
											OFFSET -1.65321 0.00000 0.00000
										}
									}
									JOINT RightHandThumb1
									{
										OFFSET -0.66129 -1.10214 -0.44086
										CHANNELS 3 Yrotation Xrotation Zrotation
										End Site
										{
											OFFSET -1.59688 -0.42788 0.00000
										}
									}
								}
							}
						}
					}
					JOINT LeftShoulder
					{
						OFFSET 0.72014 -1.20022 3.88874
						CHANNELS 3 Xrotation Yrotation Zrotation
						JOINT LeftArm
						{
							OFFSET 3.57668 0.00000 0.00000
							CHANNELS 3 Xrotation Yrotation Zrotation
							JOINT LeftForeArm
							{
								OFFSET 5.92485 0.00000 0.00000
								CHANNELS 3 Xrotation Yrotation Zrotation
								JOINT LeftHand
								{
									OFFSET 6.63013 0.00000 0.00000
									CHANNELS 3 Xrotation Yrotation Zrotation
									JOINT LeftHandEnd
									{
										OFFSET 1.65321 0.00000 0.00000
										CHANNELS 3 Xrotation Yrotation Zrotation
										End Site
										{
											OFFSET 1.65321 0.00000 0.00000
										}
									}
									JOINT LeftHandThumb1
									{
										OFFSET 0.66129 -1.10214 -0.44086
										CHANNELS 3 Yrotation Xrotation Zrotation
										End Site
										{
											OFFSET 1.59688 -0.42788 0.00000
										}
									}
								}
							}
						}
					}
				}
			}
		}
	}
	JOINT RightUpLeg
	{
		OFFSET -2.13640 0.00000 -0.62412
		CHANNELS 3 Xrotation Yrotation Zrotation
		JOINT RightLeg
		{
			OFFSET 0.00000 0.00000 -11.49360
			CHANNELS 3 Xrotation Yrotation Zrotation
			JOINT RightFoot
			{
				OFFSET 0.00000 0.00000 -8.79036
				CHANNELS 3 Xrotation Yrotation Zrotation
				JOINT RightToeBase
				{
					OFFSET 0.00000 -3.94625 -1.43632
					CHANNELS 3 Xrotation Yrotation Zrotation
					End Site
					{
						OFFSET 0.00000 -1.72833 -0.00000
					}
				}
			}
		}
	}
	JOINT LeftUpLeg
	{
		OFFSET 2.13640 0.00000 -0.62412
		CHANNELS 3 Xrotation Yrotation Zrotation
		JOINT LeftLeg
		{
			OFFSET 0.00000 0.00000 -11.49360
			CHANNELS 3 Xrotation Yrotation Zrotation
			JOINT LeftFoot
			{
				OFFSET 0.00000 0.00000 -8.79036
				CHANNELS 3 Xrotation Yrotation Zrotation
				JOINT LeftToeBase
				{
					OFFSET 0.00000 -3.94625 -1.43632
					CHANNELS 3 Xrotation Yrotation Zrotation
					End Site
					{
						OFFSET 0.00000 -1.72833 -0.00000
					}
				}
			}
		}
	}
}
MOTION
Frames: 15
Frame Time: 0.008342
 -10.2076 108.5171 21.3976 9.9120 5.2663 74.2819 10.9506 -4.2548 -0.0224 2.6422 -0.4475 -1.1300 -1.2644 -0.9872 -11.4385 -1.4149 3.3751 -2.6905 -12.3565 10.4549 -0.3261 -13.8880 -6.0747 -4.9096 -0.7702 -15.4649 -0.2023 3.7028 -38.0695 -10.2779 -0.0000 0.0001 75.2435 7.2184 52.5999 -5.7497 0.0000 -0.0000 0.0000 0.0000 -0.0000 -0.0000 -8.7068 10.6019 -7.0054 37.4967 40.1958 -28.8953 -0.0000 -0.0000 -56.4673 3.0112 -22.5424 6.7290 0.0000 -0.0000 0.0000 0.0000 0.0000 0.0000 -46.0967 17.5062 -33.2058 71.5425 0.0000 0.0000 -25.3824 18.7087 -13.5869 -0.0928 0.0000 -0.0000 -7.3165 -13.2761 16.2928 38.2463 0.0000 0.0000 -13.8102 16.2457 7.4443 -4.7378 0.0000 -0.0000
 -10.0754 108.3887 21.5155 10.0898 4.8471 72.2108 10.5908 -4.3526 -0.0824 2.5757 -0.4899 -1.1160 -1.3342 -1.2361 -11.1166 -1.3593 3.3582 -2.6495 -12.0564 11.2146 0.2356 -13.4872 -6.0839 -4.2472 -0.3752 -14.5755 0.1290 3.8341 -38.4817 -10.2489 -0.0000 0.0001 74.2133 6.8727 52.6112 -5.3538 -0.0000 0.0000 -0.0000 0.0000 -0.0000 -0.0000 -8.6974 10.7963 -6.7070 38.2237 40.1943 -29.4561 -0.0000 -0.0000 -57.1746 3.1458 -22.4336 6.8414 0.0000 0.0000 0.0000 0.0000 0.0000 -0.0000 -44.8133 17.1771 -33.6535 72.3074 0.0000 0.0000 -24.4209 19.0957 -13.9585 0.5898 0.0000 0.0000 -6.0528 -12.9016 15.8729 37.4238 0.0000 0.0000 -11.9146 16.3793 8.3953 -5.2494 0.0000 -0.0000
 -9.9401 108.2468 21.6260 10.2244 4.3998 70.1513 10.2379 -4.4933 -0.1666 2.5172 -0.5576 -1.1126 -1.3444 -1.4684 -10.7808 -1.2828 3.3671 -2.6212 -11.7720 11.9820 0.8148 -13.2240 -6.0882 -3.5991 0.0238 -13.7146 0.5327 3.9161 -38.8798 -10.1956 -0.0000 0.0001 73.1625 6.8685 52.7198 -5.1322 0.0000 -0.0000 -0.0000 -0.0000 0.0000 -0.0000 -8.6850 10.9744 -6.3903 38.7934 40.3077 -29.8552 -0.0000 -0.0000 -57.6222 3.1987 -22.2780 6.9322 -0.0000 0.0000 -0.0000 -0.0000 -0.0000 0.0000 -43.3603 16.8063 -34.1063 72.8333 0.0000 0.0000 -23.3486 19.4863 -14.2345 1.2691 0.0000 0.0000 -4.8006 -12.5203 15.2800 36.6513 0.0000 0.0000 -9.9745 16.2661 9.3615 -5.7362 0.0000 -0.0000
 -9.8060 108.0933 21.7269 10.3791 3.9766 68.0833 9.8599 -4.6460 -0.2702 2.4632 -0.6270 -1.1067 -1.3052 -1.6751 -10.4404 -1.1876 3.3994 -2.6120 -11.5134 12.7403 1.4065 -13.1338 -6.0950 -2.9691 0.4052 -12.9123 1.0033 3.9952 -39.2330 -10.0917 -0.0000 0.0001 72.0923 7.1081 52.9270 -5.0200 0.0000 -0.0000 -0.0000 -0.0000 -0.0000 0.0000 -8.6272 11.0992 -6.0737 39.1788 40.5626 -30.1008 -0.0000 -0.0000 -57.8022 3.1408 -22.0907 6.9873 0.0000 0.0000 -0.0000 0.0000 -0.0000 -0.0000 -41.8295 16.4167 -34.5689 73.0701 0.0000 0.0000 -22.2019 19.8973 -14.4526 1.8963 0.0000 0.0000 -3.6582 -12.0912 14.5208 35.9768 0.0000 0.0000 -7.9762 15.8845 10.3609 -6.1801 0.0000 -0.0000
 -9.6769 107.9295 21.8172 10.5991 3.5900 65.9836 9.4783 -4.7830 -0.3850 2.4127 -0.6730 -1.0967 -1.2403 -1.8568 -10.1055 -1.0800 3.4512 -2.6064 -11.2966 13.4758 2.0068 -13.2492 -6.1179 -2.3634 0.7635 -12.2104 1.5263 4.1082 -39.4909 -9.8992 -0.0000 0.0001 71.0136 7.5026 53.2147 -4.9909 -0.0000 0.0000 -0.0000 0.0000 -0.0000 -0.0000 -8.5091 11.1635 -5.7510 39.3842 40.9379 -30.2072 -0.0000 -0.0000 -57.7167 2.9514 -21.8809 6.9866 -0.0000 -0.0000 -0.0000 0.0000 0.0000 0.0000 -40.2674 16.0233 -35.0517 72.9777 0.0000 0.0000 -21.0445 20.3301 -14.6320 2.4209 0.0000 0.0000 -2.6822 -11.5916 13.6262 35.4506 0.0000 0.0000 -5.8878 15.2501 11.3720 -6.5634 0.0000 -0.0000
 -9.5571 107.7567 21.8956 10.9102 3.2711 63.8309 9.0952 -4.8893 -0.5005 2.3633 -0.7066 -1.0814 -1.1552 -1.9819 -9.7584 -0.9728 3.5002 -2.6043 -11.1358 14.1842 2.6069 -13.6023 -6.1753 -1.7924 1.0809 -11.6317 2.0857 4.2808 -39.6301 -9.6076 -0.0000 0.0001 69.9317 7.9299 53.5583 -4.9510 0.0000 -0.0000 0.0000 0.0000 0.0000 0.0000 -8.3163 11.1756 -5.4533 39.3893 41.4257 -30.1332 -0.0000 -0.0000 -57.3951 2.6358 -21.6481 6.9203 -0.0000 0.0000 -0.0000 0.0000 -0.0000 0.0000 -38.7295 15.6164 -35.5781 72.5279 0.0000 0.0000 -19.9556 20.7715 -14.7744 2.8002 0.0000 0.0000 -1.9555 -11.0370 12.6341 35.1492 0.0000 0.0000 -3.6838 14.4147 12.3415 -6.8683 0.0000 -0.0000
 -9.4496 107.5766 21.9613 11.3429 3.0205 61.6013 8.7346 -4.9402 -0.6050 2.3214 -0.7131 -1.0589 -1.0659 -2.0548 -9.3955 -0.8758 3.5339 -2.5929 -11.0528 14.8638 3.2006 -14.2195 -6.2892 -1.2682 1.3551 -11.1877 2.6654 4.5162 -39.6382 -9.2099 -0.0000 0.0001 68.8585 8.2984 53.9217 -4.8489 -0.0000 -0.0000 -0.0000 -0.0000 0.0000 -0.0000 -8.0517 11.1497 -5.1851 39.2012 41.9931 -29.8695 -0.0000 -0.0000 -56.8663 2.2074 -21.3918 6.7804 0.0000 -0.0000 0.0000 0.0000 0.0000 0.0000 -37.2524 15.2030 -36.1536 71.7218 0.0000 0.0000 -19.0348 21.1975 -14.8459 3.0031 0.0000 0.0000 -1.5266 -10.4286 11.6016 35.1302 0.0000 0.0000 -1.3389 13.4480 13.1867 -7.0787 0.0000 -0.0000
 -9.3565 107.3908 22.0138 11.9028 2.8127 59.2789 8.4475 -4.9127 -0.6875 2.2918 -0.6982 -1.0227 -0.9837 -2.0711 -9.0121 -0.7996 3.5389 -2.5613 -11.0654 15.5153 3.7768 -15.1234 -6.4776 -0.8072 1.5884 -10.8851 3.2444 4.8046 -39.5063 -8.7106 -0.0000 0.0001 67.8073 8.5179 54.2800 -4.6215 0.0000 -0.0000 0.0000 -0.0000 -0.0000 0.0000 -7.7036 11.1131 -4.9539 38.8243 42.5740 -29.4152 -0.0000 -0.0000 -56.1699 1.6795 -21.1314 6.5769 -0.0000 -0.0000 -0.0000 -0.0000 0.0000 0.0000 -35.8357 14.7895 -36.7876 70.5815 0.0000 0.0000 -18.3894 21.5764 -14.7801 3.0098 0.0000 0.0000 -1.4052 -9.7799 10.5953 35.4353 0.0000 0.0000 1.1564 12.4189 13.7985 -7.1817 0.0000 -0.0000
 -9.2795 107.2009 22.0526 12.5745 2.6402 56.8604 8.2643 -4.8106 -0.7444 2.2885 -0.6510 -0.9752 -0.9178 -2.0492 -8.5993 -0.7514 3.5029 -2.4992 -11.1967 16.1496 4.3286 -16.3335 -6.7609 -0.4298 1.7734 -10.6982 3.8039 5.1179 -39.2656 -8.1366 -0.0000 0.0001 66.7986 8.5392 54.5830 -4.2391 -0.0000 0.0000 0.0000 -0.0000 0.0000 0.0000 -7.3100 11.0809 -4.7536 38.2975 43.1474 -28.7811 -0.0000 -0.0000 -55.3425 1.0910 -20.8511 6.3128 0.0000 -0.0000 0.0000 0.0000 -0.0000 0.0000 -34.4804 14.3656 -37.4999 69.1437 0.0000 0.0000 -18.1154 21.8731 -14.4901 2.8182 0.0000 0.0000 -1.6087 -9.1326 9.6803 36.1023 0.0000 0.0000 3.7762 11.3715 14.0564 -7.1628 0.0000 -0.0000
 -9.2189 107.0088 22.0769 13.3277 2.4681 54.3536 8.2394 -4.6269 -0.7634 2.3201 -0.5781 -0.9224 -0.8763 -2.0080 -8.1505 -0.7334 3.4316 -2.4095 -11.4612 16.7637 4.8449 -17.8603 -7.1418 -0.1574 1.9200 -10.5899 4.3339 5.4148 -38.9630 -7.5151 -0.0000 0.0001 65.8455 8.3352 54.8176 -3.6857 0.0000 0.0000 0.0000 0.0000 -0.0000 -0.0000 -6.8799 11.0684 -4.5846 37.6626 43.6522 -27.9957 -0.0000 -0.0000 -54.4333 0.4577 -20.5924 6.0165 -0.0000 -0.0000 -0.0000 -0.0000 0.0000 0.0000 -33.1578 13.9352 -38.2990 67.4704 0.0000 0.0000 -18.2936 22.0418 -13.8774 2.4282 0.0000 0.0000 -2.1075 -8.5174 8.9067 37.1375 0.0000 0.0000 6.4611 10.3123 13.8598 -7.0205 0.0000 -0.0000
 -9.1749 106.8163 22.0861 14.1066 2.2983 51.7869 8.4018 -4.3867 -0.7433 2.3960 -0.5003 -0.8827 -0.8577 -1.9502 -7.6475 -0.7459 3.3205 -2.2986 -11.8689 17.3639 5.3160 -19.7105 -7.6198 -0.0172 2.0207 -10.5168 4.8222 5.6601 -38.6504 -6.8846 -0.0000 0.0001 64.9724 7.9161 54.9608 -2.9888 0.0000 -0.0000 0.0000 -0.0000 -0.0000 0.0000 -6.4535 11.0705 -4.4494 36.9787 44.0899 -27.0931 -0.0000 -0.0000 -53.4815 -0.1861 -20.3650 5.7046 -0.0000 -0.0000 -0.0000 -0.0000 0.0000 0.0000 -31.8467 13.4721 -39.2077 65.6263 0.0000 0.0000 -18.9624 22.0285 -12.8612 1.8501 0.0000 0.0000 -2.8884 -8.0029 8.2995 38.5481 0.0000 0.0000 9.1003 9.2022 13.1395 -6.7566 0.0000 -0.0000
 -9.1472 106.6258 22.0792 14.8698 2.1345 49.1991 8.7679 -4.1173 -0.7044 2.5181 -0.4041 -0.8107 -0.8571 -1.9016 -7.1507 -0.7878 3.1715 -2.1517 -12.4189 17.9489 5.7292 -21.8768 -8.1728 -0.0311 2.0725 -10.4236 5.2655 5.8179 -38.3920 -6.2868 -0.0000 0.0001 64.2047 7.3332 55.0058 -2.2233 0.0000 -0.0000 -0.0000 -0.0000 -0.0000 0.0000 -6.0658 11.0815 -4.3632 36.2975 44.4724 -26.0895 -0.0000 -0.0000 -52.5394 -0.8018 -20.1907 5.4268 -0.0000 -0.0000 -0.0000 -0.0000 0.0000 0.0000 -30.5434 12.9683 -40.2210 63.6978 0.0000 0.0000 -20.1159 21.7682 -11.3990 1.1006 0.0000 0.0000 -3.9330 -7.6330 7.8504 40.3208 0.0000 0.0000 11.5438 7.9787 11.8955 -6.3844 0.0000 -0.0000
 -9.1347 106.4402 22.0552 15.5971 2.0004 46.6341 9.3211 -3.8238 -0.6443 2.6876 -0.3284 -0.7533 -0.8698 -1.8652 -6.6225 -0.8487 3.0095 -1.9959 -13.1076 18.4985 6.0763 -24.3332 -8.7636 -0.2123 2.0595 -10.2640 5.6663 5.8783 -38.2499 -5.7482 -0.0000 0.0001 63.5560 6.6140 54.9609 -1.4282 0.0000 0.0000 0.0000 0.0000 0.0000 -0.0000 -5.7512 11.0629 -4.3143 35.6927 44.8277 -25.0571 -0.0000 -0.0000 -51.6264 -1.3664 -20.1006 5.2059 0.0000 0.0000 0.0000 0.0000 0.0000 0.0000 -29.2819 12.4195 -41.3063 61.7814 0.0000 0.0000 -21.6936 21.1988 -9.5087 0.2054 0.0000 0.0000 -5.2445 -7.4346 7.5182 42.4361 0.0000 0.0000 13.6066 6.5864 10.2063 -5.9299 0.0000 -0.0000
 -9.1361 106.2612 22.0138 16.2333 1.9151 44.1471 10.0734 -3.5576 -0.5748 2.8941 -0.2829 -0.7031 -0.8842 -1.8445 -6.0913 -0.9174 2.8528 -1.8389 -13.9195 18.9851 6.3488 -27.0320 -9.3349 -0.5592 1.9800 -9.9916 6.0383 5.8293 -38.2817 -5.2908 -0.0000 0.0001 63.0376 5.8402 54.8482 -0.7141 0.0000 0.0000 0.0000 0.0000 -0.0000 0.0000 -5.5202 10.9753 -4.3131 35.1990 45.2034 -24.0345 -0.0000 -0.0000 -50.7645 -1.8542 -20.1169 5.0778 -0.0000 0.0000 -0.0000 0.0000 -0.0000 -0.0000 -28.0564 11.7981 -42.4323 59.9570 0.0000 0.0000 -23.5850 20.2817 -7.2680 -0.7971 0.0000 -0.0000 -6.7884 -7.4494 7.2296 44.8684 0.0000 0.0000 15.0912 5.0183 8.2131 -5.4283 0.0000 -0.0000
 -9.1497 106.0919 21.9547 16.7999 1.9255 41.7845 10.9585 -3.3410 -0.4990 3.1268 -0.2911 -0.6714 -0.8847 -1.8323 -5.5638 -0.9813 2.7308 -1.7036 -14.8346 19.3688 6.5435 -29.9002 -9.8173 -1.0520 1.8176 -9.5775 6.3965 5.6975 -38.5254 -4.9169 -0.0000 0.0001 62.6494 5.0845 54.7042 -0.1794 0.0000 0.0000 -0.0000 0.0000 0.0000 -0.0000 -5.3845 10.7784 -4.3530 34.8569 45.6417 -23.0731 -0.0000 -0.0000 -49.9578 -2.2430 -20.2608 5.0747 0.0000 0.0000 -0.0000 -0.0000 -0.0000 0.0000 -26.9531 11.1075 -43.5243 58.3146 0.0000 0.0000 -25.6525 19.0207 -4.8155 -1.8596 0.0000 -0.0000 -8.6035 -7.6672 6.8945 47.5914 0.0000 0.0000 15.8319 3.3319 6.1099 -4.9218 0.0000 -0.0000
